<?xml version="1.0" standalone="no"?>
<!DOCTYPE svg PUBLIC "-//W3C//DTD SVG 20010904//EN"
 "http://www.w3.org/TR/2001/REC-SVG-20010904/DTD/svg10.dtd">
<svg version="1.0" xmlns="http://www.w3.org/2000/svg"
 width="1280.000000pt" height="640.000000pt" viewBox="0 0 1280.000000 640.000000"
 preserveAspectRatio="xMidYMid meet">
<metadata>
Created by potrace 1.15, written by Peter Selinger 2001-2017
</metadata>
<g transform="translate(0.000000,640.000000) scale(0.100000,-0.100000)"
fill="#000000" stroke="none">
<path d="M2330 5660 c-751 -46 -1473 -445 -1882 -1040 -238 -346 -374 -691
-430 -1090 -21 -155 -16 -506 10 -675 71 -459 247 -862 525 -1210 137 -170
378 -383 588 -518 284 -182 582 -292 954 -354 157 -25 572 -26 735 0 289 46
527 122 778 249 345 175 648 299 989 402 1068 325 2237 350 3343 71 433 -109
958 -307 1295 -489 474 -256 1120 -333 1680 -200 212 51 477 161 683 286 277
167 572 444 764 718 185 264 330 599 388 900 41 210 58 515 40 710 -68 738
-481 1422 -1114 1845 -280 187 -575 302 -936 364 -550 96 -1084 -6 -1747 -333
-648 -320 -1347 -504 -2148 -567 -182 -14 -669 -14 -860 0 -884 66 -1642 278
-2450 684 -82 41 -195 92 -250 112 -285 106 -631 154 -955 135z m356 -1256
c359 -61 692 -309 861 -640 82 -161 115 -275 132 -456 59 -621 -370 -1186
-994 -1309 -105 -21 -359 -18 -465 4 -235 51 -434 156 -604 317 -217 206 -349
482 -375 781 -39 467 193 915 599 1155 252 149 543 200 846 148z m7834 11
c145 -25 232 -52 350 -109 244 -119 442 -314 565 -556 106 -210 151 -509 111
-746 -91 -533 -514 -944 -1050 -1019 -100 -14 -289 -7 -395 15 -135 27 -204
52 -325 113 -356 181 -591 510 -656 919 -16 98 -8 326 15 428 126 566 614 963
1190 969 61 0 148 -6 195 -14z"/>
</g>
</svg>
